<svg width="48" height="48" viewBox="0 0 48 48" fill="none" xmlns="http://www.w3.org/2000/svg">
<path d="M27.4335 3C22.4437 3 18.384 7.05975 18.384 12.0502C18.384 17.0407 22.4437 21.1005 27.4335 21.1005C32.4232 21.1005 36.4837 17.0407 36.4837 12.0502C36.4837 7.05975 32.424 3 27.4335 3ZM27.4335 16.8113C24.8085 16.8113 22.6725 14.6752 22.6725 12.0502C22.6725 9.42525 24.8085 7.28925 27.4335 7.28925C30.0585 7.28925 32.1952 9.42525 32.1952 12.0502C32.1952 14.6752 30.0592 16.8113 27.4335 16.8113Z" fill="#F9FFE6"/>
<path d="M11.0504 44.9873L11.3084 44.9603C14.1082 44.6386 16.0934 43.3456 17.0272 42.6031C17.2229 42.4471 17.4854 42.3998 17.7224 42.4756C20.7067 43.4303 26.6804 44.6416 33.1499 42.0338C35.1892 41.2013 37.0964 40.0621 38.8169 38.6476C40.4189 37.3276 41.0797 35.1841 40.4999 33.1868L36.1297 18.0121C34.9552 19.7198 33.2909 21.0608 31.3417 21.8416V29.7263C31.9049 30.4171 32.3864 31.1918 32.7442 32.0528C32.9032 32.4353 32.7217 32.8741 32.3392 33.0331C31.9559 33.1921 31.5172 33.0106 31.3582 32.6281C30.2992 30.0773 28.0544 28.3283 25.4999 28.0636C22.2547 27.7261 19.0469 29.8898 17.8964 33.2078C17.7884 33.5176 17.4982 33.7126 17.1877 33.7126C17.1067 33.7126 17.0234 33.6991 16.9424 33.6706C16.5509 33.5348 16.3432 33.1081 16.4789 32.7166C16.8464 31.6553 17.3954 30.6976 18.0719 29.8643C17.6227 28.9606 16.4249 27.0488 14.0797 26.3806C13.8802 26.3251 13.6784 26.2756 13.4752 26.2426C11.9834 25.9853 10.5134 26.3971 9.32093 27.3998C8.03168 28.4851 7.29218 30.0713 7.29218 31.7521V41.5043C7.29218 42.4838 7.70693 43.4258 8.43068 44.0896C9.15218 44.7518 10.0792 45.0676 11.0504 44.9873Z" fill="#F9FFE6"/>
<path d="M27.4335 8.78943C25.6357 8.78943 24.1725 10.2527 24.1725 12.0504C24.1725 13.8482 25.635 15.3114 27.4335 15.3114C29.232 15.3114 30.6952 13.8482 30.6952 12.0504C30.6952 10.2527 29.232 8.78943 27.4335 8.78943Z" fill="#F9FFE6"/>
</svg>
