<svg width="80" height="80" viewBox="0 0 80 80" fill="none" xmlns="http://www.w3.org/2000/svg">
<rect width="80" height="80" rx="40" fill="#AB0306"/>
<g clip-path="url(#clip0_4001_98)">
<path d="M62.5938 61.1875H57.3438H45.1562V56.218L45.7693 56.2946C47.435 56.5028 48.9062 55.204 48.9062 53.5254C48.9062 52.118 47.8582 50.9308 46.4616 50.7563L19.2307 47.3523C17.565 47.1441 16.0938 48.4429 16.0938 50.1216C16.0938 51.529 17.1418 52.7162 18.5384 52.8908L19.8438 53.054V61.1875H17.4062C16.6296 61.1875 16 61.8172 16 62.5938C16 63.3704 16.6296 64 17.4062 64H62.5938C63.3704 64 64 63.3704 64 62.5938C64 61.8172 63.3704 61.1875 62.5938 61.1875ZM42.3438 61.1875H37.6562V55.2805L42.3438 55.8665V61.1875ZM34.8438 61.1875H30.1562V54.343L34.8438 54.929V61.1875ZM22.6562 53.4055L27.3438 53.9915V61.1875H22.6562V53.4055Z" fill="white"/>
<path d="M21.0438 44.7061C23.6326 44.7061 25.7313 42.6074 25.7313 40.0186C25.7313 37.4297 23.6326 35.3311 21.0438 35.3311C18.4549 35.3311 16.3563 37.4297 16.3563 40.0186C16.3563 42.6074 18.4549 44.7061 21.0438 44.7061Z" fill="white"/>
<path d="M36.25 25.8438C37.0267 25.8438 37.6562 25.2142 37.6562 24.4375C37.6562 23.6608 37.0267 23.0312 36.25 23.0312C35.4733 23.0312 34.8438 23.6608 34.8438 24.4375C34.8438 25.2142 35.4733 25.8438 36.25 25.8438Z" fill="white"/>
<path d="M36.25 32.875C40.9099 32.875 44.6875 29.0974 44.6875 24.4375C44.6875 19.7776 40.9099 16 36.25 16C31.5901 16 27.8125 19.7776 27.8125 24.4375C27.8125 29.0974 31.5901 32.875 36.25 32.875ZM36.25 20.2188C38.5762 20.2188 40.4688 22.1113 40.4688 24.4375C40.4688 26.7637 38.5762 28.6562 36.25 28.6562C33.9238 28.6562 32.0312 26.7637 32.0312 24.4375C32.0312 22.1113 33.9238 20.2188 36.25 20.2188Z" fill="white"/>
<path d="M60.1563 58.375V47.0411C60.1563 44.2043 58.0439 41.8114 55.2289 41.4595L39.0625 39.4387V35.3315C38.1633 35.5639 37.2208 35.6875 36.25 35.6875C35.2792 35.6875 34.3368 35.5639 33.4375 35.3315V38.7356L32.7588 38.6508C30.5207 38.371 28.5438 40.1162 28.5438 42.3717C28.5438 44.2628 29.952 45.8581 31.8285 46.0926L53.2994 48.7765C54.0032 48.8644 54.5313 49.4627 54.5313 50.1719V58.375C54.5313 59.9284 55.7904 61.1875 57.3438 61.1875C58.8971 61.1875 60.1563 59.9284 60.1563 58.375Z" fill="white"/>
</g>
<defs>
<clipPath id="clip0_4001_98">
<rect width="48" height="48" fill="white" transform="translate(16 16)"/>
</clipPath>
</defs>
</svg>
