<svg width="48" height="48" viewBox="0 0 48 48" fill="none" xmlns="http://www.w3.org/2000/svg">
<rect width="48" height="48" rx="24" fill="#AB0306"/>
<path d="M14.5238 26.9399L14.4826 26.8987L13.8938 27.4874C13.615 27.7695 13.4586 28.1502 13.4586 28.5468C13.4586 28.9435 13.615 29.3241 13.8938 29.6062L18.3938 34.1062C18.6759 34.3851 19.0566 34.5415 19.4532 34.5415C19.8499 34.5415 20.2305 34.3851 20.5126 34.1062L21.1051 33.5137C21.0946 33.5208 14.7762 27.1917 14.5238 26.9399Z" fill="white"/>
<path d="M17.9738 23.4901C16.1502 21.6909 13.257 24.5822 15.0526 26.4076L21.5925 32.9476C21.7695 33.1266 21.9803 33.2685 22.2128 33.3651C22.4452 33.4617 22.6946 33.511 22.9463 33.5101C23.2478 33.5047 23.5443 33.4326 23.8147 33.299C24.085 33.1655 24.3225 32.9737 24.51 32.7376C24.6883 32.5597 24.8298 32.3484 24.9263 32.1158C25.0228 31.8832 25.0725 31.6338 25.0725 31.382C25.0725 31.1301 25.0228 30.8808 24.9263 30.6481C24.8298 30.4155 24.6883 30.2042 24.51 30.0264L17.9738 23.4901Z" fill="white"/>
<path d="M26.4075 15.0525C24.5758 13.2569 21.6944 16.1342 23.49 17.9738L30.0263 24.51C30.2043 24.6886 30.4159 24.8302 30.6489 24.9268C30.8818 25.0233 31.1316 25.0729 31.3838 25.0725C31.6851 25.0662 31.9813 24.9937 32.2515 24.8602C32.5218 24.7267 32.7593 24.5355 32.9475 24.3C33.3059 23.9407 33.5072 23.4538 33.5072 22.9463C33.5072 22.4387 33.3059 21.9519 32.9475 21.5925L26.4075 15.0525Z" fill="white"/>
<path d="M34.1063 18.3936L29.6063 13.8936C29.3242 13.6148 28.9435 13.4584 28.5469 13.4584C28.1502 13.4584 27.7696 13.6148 27.4875 13.8936L26.895 14.4861C26.9064 14.4795 32.7852 20.369 33.4763 21.0599L33.5175 21.1011L34.1063 20.5124C34.3852 20.2303 34.5415 19.8497 34.5415 19.453C34.5415 19.0564 34.3851 18.6757 34.1063 18.3936Z" fill="white"/>
<path d="M25.2375 20.7824L20.7825 25.2374C21.3486 25.8032 22.1965 26.6516 22.7625 27.2174L27.2175 22.7624C26.8984 22.4346 25.2375 20.7824 25.2375 20.7824Z" fill="white"/>
<path d="M33.3789 16.6049L33.8214 16.1586C35.0445 14.9106 33.0891 12.9555 31.8413 14.1786L31.3989 14.6249C31.7217 14.9497 33.3789 16.6049 33.3789 16.6049Z" fill="white"/>
<path d="M14.6251 31.3987L14.1788 31.8412C13.2931 32.7003 14.0827 34.2039 15.2326 34.2037C15.7884 34.2445 16.2469 33.7547 16.605 33.3786C16.2822 33.0536 14.6251 31.3987 14.6251 31.3987Z" fill="white"/>
</svg>
